<svg id="visual" viewBox="0 0 960 540" width="960" height="540" xmlns="http://www.w3.org/2000/svg" xmlns:xlink="http://www.w3.org/1999/xlink" version="1.1"><rect x="0" y="0" width="960" height="540" fill="#202731"></rect><path d="M0 412L7.7 420.7C15.3 429.3 30.7 446.7 45.8 449.8C61 453 76 442 91.2 425.7C106.3 409.3 121.7 387.7 137 374C152.3 360.3 167.7 354.7 183 378.5C198.3 402.3 213.7 455.7 228.8 483.5C244 511.3 259 513.7 274.2 498.5C289.3 483.3 304.7 450.7 320 438.2C335.3 425.7 350.7 433.3 365.8 440.7C381 448 396 455 411.2 465.8C426.3 476.7 441.7 491.3 457 480.8C472.3 470.3 487.7 434.7 503 426C518.3 417.3 533.7 435.7 548.8 438C564 440.3 579 426.7 594.2 409.7C609.3 392.7 624.7 372.3 640 379.8C655.3 387.3 670.7 422.7 685.8 446.7C701 470.7 716 483.3 731.2 487.7C746.3 492 761.7 488 777 465.3C792.3 442.7 807.7 401.3 823 405.7C838.3 410 853.7 460 868.8 469.5C884 479 899 448 914.2 443.5C929.3 439 944.7 461 952.3 472L960 483L960 541L952.3 541C944.7 541 929.3 541 914.2 541C899 541 884 541 868.8 541C853.7 541 838.3 541 823 541C807.7 541 792.3 541 777 541C761.7 541 746.3 541 731.2 541C716 541 701 541 685.8 541C670.7 541 655.3 541 640 541C624.7 541 609.3 541 594.2 541C579 541 564 541 548.8 541C533.7 541 518.3 541 503 541C487.7 541 472.3 541 457 541C441.7 541 426.3 541 411.2 541C396 541 381 541 365.8 541C350.7 541 335.3 541 320 541C304.7 541 289.3 541 274.2 541C259 541 244 541 228.8 541C213.7 541 198.3 541 183 541C167.7 541 152.3 541 137 541C121.7 541 106.3 541 91.2 541C76 541 61 541 45.8 541C30.7 541 15.3 541 7.7 541L0 541Z" fill="#12171e" stroke-linecap="round" stroke-linejoin="miter"></path></svg>