<svg id="visual" viewBox="0 0 900 600" width="900" height="600" xmlns="http://www.w3.org/2000/svg" xmlns:xlink="http://www.w3.org/1999/xlink" version="1.1"><rect x="0" y="0" width="900" height="600" fill="#202731"></rect><path d="M0 98L6.5 87C13 76 26 54 39 46.2C52 38.3 65 44.7 78 67C91 89.3 104 127.7 117.2 142.5C130.3 157.3 143.7 148.7 156.8 131.5C170 114.3 183 88.7 196 75.3C209 62 222 61 235 59.5C248 58 261 56 274 56.5C287 57 300 60 313 77.3C326 94.7 339 126.3 352 126.2C365 126 378 94 391 72.5C404 51 417 40 430.2 45.7C443.3 51.3 456.7 73.7 469.8 78.3C483 83 496 70 509 72.7C522 75.3 535 93.7 548 107.2C561 120.7 574 129.3 587 127.8C600 126.3 613 114.7 626 96.3C639 78 652 53 665 59.3C678 65.7 691 103.3 704 106C717 108.7 730 76.3 743.2 68.7C756.3 61 769.7 78 782.8 86.7C796 95.3 809 95.7 822 94.7C835 93.7 848 91.3 861 95.7C874 100 887 111 893.5 116.5L900 122L900 0L893.5 0C887 0 874 0 861 0C848 0 835 0 822 0C809 0 796 0 782.8 0C769.7 0 756.3 0 743.2 0C730 0 717 0 704 0C691 0 678 0 665 0C652 0 639 0 626 0C613 0 600 0 587 0C574 0 561 0 548 0C535 0 522 0 509 0C496 0 483 0 469.8 0C456.7 0 443.3 0 430.2 0C417 0 404 0 391 0C378 0 365 0 352 0C339 0 326 0 313 0C300 0 287 0 274 0C261 0 248 0 235 0C222 0 209 0 196 0C183 0 170 0 156.8 0C143.7 0 130.3 0 117.2 0C104 0 91 0 78 0C65 0 52 0 39 0C26 0 13 0 6.5 0L0 0Z" fill="#12171e" stroke-linecap="round" stroke-linejoin="miter"></path></svg>